<svg fill="none" height="2500" viewBox="-10.12 -53.61 312.627 282.73" width="2500" xmlns="http://www.w3.org/2000/svg">
  <defs></defs>
  <path d="M 296.996 37.73 C 290.398 79.092 269.343 116.771 237.576 144.065 C 205.809 171.359 165.391 186.498 123.512 186.788 C 115.029 187.114 106.535 186.598 98.154 185.249 C 62.035 179.112 35.107 148.585 33.524 111.983 C 33.693 92.172 41.645 73.221 55.664 59.221 C 84.83 30.094 131.973 29.761 161.549 58.473 C 175.764 72.273 183.983 91.109 184.433 110.916 C 184.75 123.426 179.331 134.399 168.194 134.716 C 156.295 134.716 150.717 126.225 150.717 114.782 L 150.717 82.985 C 150.726 72.282 142.097 63.576 131.394 63.491 L 104.741 63.491 C 88.988 63.382 74.256 71.276 65.622 84.452 C 47.153 112.63 63.928 150.478 97.209 155.72 C 112.77 158.169 128.51 152.554 139.009 140.809 L 139.941 139.419 L 140.874 140.962 C 147.384 149.808 157.888 154.81 168.86 154.29 C 188.884 152.835 204.092 135.673 203.128 115.619 C 203.221 107.344 202.294 99.09 200.367 91.042 C 195.424 68.308 182.241 48.208 163.359 34.619 C 124.252 6.475 70.209 12.394 38.123 48.337 C 22.629 65.693 14.108 88.169 14.203 111.434 C 14.5 136.103 24.347 159.697 41.676 177.258 C 59.002 194.818 82.462 204.978 107.124 205.602 C 107.124 205.602 114.104 206.237 121.973 206.056 C 160.224 205.814 197.611 194.659 229.742 173.901 C 230.199 173.583 230.656 174.218 230.352 174.681 C 198.69 208.789 153.615 227.224 107.127 225.077 C 76.784 225.628 47.536 213.753 26.166 192.206 C 4.793 170.658 -6.844 141.313 -6.049 110.974 C -6.035 74.681 11.096 40.522 40.174 18.804 C 59.446 4.611 82.736 -3.078 106.671 -3.149 L 142.443 -3.149 C 170.696 -3.17 197.64 -15.067 216.69 -35.933 C 216.889 -36.154 217.153 -36.305 217.445 -36.364 C 218.041 -36.493 218.653 -36.226 218.965 -35.701 C 219.118 -35.444 219.187 -35.146 219.162 -34.847 C 217.645 -18.768 212.293 -3.288 203.554 10.293 C 203.289 10.775 203.334 11.368 203.669 11.804 C 204.001 12.24 204.559 12.438 205.093 12.311 C 238.58 4.746 266.487 -18.268 280.291 -49.702 C 280.464 -49.979 280.702 -50.209 280.986 -50.372 C 281.566 -50.699 282.274 -50.699 282.855 -50.372 C 283.139 -50.21 283.378 -49.98 283.549 -49.702 C 297.568 -22.844 302.297 7.901 296.996 37.73 Z M 107.032 82.588 C 89.482 82.585 76.312 98.631 79.739 115.843 C 81.934 126.881 90.562 135.511 101.601 137.708 C 118.812 141.131 134.856 127.96 134.852 110.412 L 134.852 84.435 C 134.8 83.406 133.977 82.583 132.948 82.531 L 107.032 82.588 Z" fill="#702af7" style="transform-box: fill-box; transform-origin: 50% 50%;"></path>
</svg>